# Blender v2.74 (sub 0) OBJ File: ''
# www.blender.org
mtllib yellows.mtl
o Cube
v 1.000000 -1.000000 -1.000000
v 1.000000 -1.000000 1.000000
v -1.000000 -1.000000 1.000000
v -1.000000 -1.000000 -1.000000
v 1.000000 1.000000 -0.999999
v 0.999999 1.000000 1.000001
v -1.000000 1.000000 1.000000
v -1.000000 1.000000 -1.000000
vt 0.250043 0.500000
vt 0.250043 0.250043
vt 0.500000 0.250043
vt 0.500000 0.500000
vt 0.999914 0.500000
vt 0.749957 0.500000
vt 0.749957 0.250043
vt 0.999914 0.250044
vt 0.000087 0.500000
vt 0.000087 0.250043
vt 0.250043 0.000087
vt 0.500000 0.000087
vt 0.250043 0.749957
vt 0.500000 0.749957
vn 0.000000 -1.000000 0.000000
vn 0.000000 1.000000 0.000000
vn 1.000000 0.000000 0.000000
vn -0.000000 -0.000000 1.000000
vn -1.000000 -0.000000 -0.000000
vn 0.000000 0.000000 -1.000000
usemtl Material
s off
f 1/1/1 2/2/1 3/3/1 4/4/1
f 5/5/2 8/6/2 7/7/2 6/8/2
f 1/1/3 5/9/3 6/10/3 2/2/3
f 2/2/4 6/11/4 7/12/4 3/3/4
f 3/3/5 7/7/5 8/6/5 4/4/5
f 5/13/6 1/1/6 4/4/6 8/14/6
o Cube
v 3.000000 -1.000000 -1.000000
v 3.000000 -1.000000 1.000000
v 1.000000 -1.000000 1.000000
v 1.000000 -1.000000 -1.000000
v 3.000000 1.000000 -0.999999
v 2.999999 1.000000 1.000001
v 1.000000 1.000000 1.000000
v 1.000000 1.000000 -1.000000
vt 0.250043 0.500000
vt 0.250043 0.250043
vt 0.500000 0.250043
vt 0.500000 0.500000
vt 0.999914 0.500000
vt 0.749957 0.500000
vt 0.749957 0.250043
vt 0.999914 0.250044
vt 0.000087 0.500000
vt 0.000087 0.250043
vt 0.250043 0.000087
vt 0.500000 0.000087
vt 0.250043 0.749957
vt 0.500000 0.749957
vn 0.000000 -1.000000 0.000000
vn 0.000000 1.000000 0.000000
vn 1.000000 0.000000 0.000000
vn -0.000000 -0.000000 1.000000
vn -1.000000 -0.000000 -0.000000
vn 0.000000 0.000000 -1.000000
usemtl Material
s off
f 9/15/7 10/16/7 11/17/7 12/18/7
f 13/19/8 16/20/8 15/21/8 14/22/8
f 9/15/9 13/23/9 14/24/9 10/16/9
f 10/16/10 14/25/10 15/26/10 11/17/10
f 11/17/11 15/21/11 16/20/11 12/18/11
f 13/27/12 9/15/12 12/18/12 16/28/12
# 1st number gets += number of vertices 8 here
# 2nd number gets += number of texture vertices 14 here
# 3rd number gets += number of vertex normals 6 here
# every number in the range should appear in relevant slot, validation method
